<svg xmlns="http://www.w3.org/2000/svg" width="48" height="48" fill="none">
  <path fill="#161616" d="M40 0H8a8 8 0 0 0-8 8v32a8 8 0 0 0 8 8h32a8 8 0 0 0 8-8V8a8 8 0 0 0-8-8Z"/>
  <path fill="#fff" d="M19.997 34.54c.367-1.907.68-3.915 1.12-5.923.218-1.05-.047-1.499-1.222-1.419-1.174.08-2.485.04-3.734 0-1.25-.04-1.474-.669-.754-1.566 3.544-4.377 7.13-8.7 10.701-13.01.4-.489.862-.836 1.52-.468.66.368.524.823.415 1.372-.394 2.007-.72 4.015-1.154 5.983-.224 1.017.068 1.378 1.127 1.338a31.686 31.686 0 0 1 3.191 0c.604 0 1.399-.314 1.711.509.313.823-.346 1.171-.679 1.66a457.247 457.247 0 0 1-4.128 5.012 2329.93 2329.93 0 0 0-6.077 7.282c-.394.475-.835.857-1.507.616-.672-.241-.53-.81-.53-1.386Z"/>
</svg>
