<svg xmlns="http://www.w3.org/2000/svg" aria-hidden="true" style="position:absolute;width:0;height:0;overflow:hidden">
    <symbol id="icon-arrow-circle-broken-right" viewBox="0 0 32 32">
      <path stroke-linecap="round" stroke-linejoin="round" stroke-width="2.6" d="M4.45 9.333A13.328 13.328 0 0 1 16 2.666c7.364 0 13.333 5.97 13.333 13.333S23.363 29.332 16 29.332a13.329 13.329 0 0 1-11.55-6.667"/>
      <path stroke-linecap="round" stroke-linejoin="round" stroke-width="2.6" d="M16 21.333 21.333 16 16 10.667M2.667 16h18.667"/>
    </symbol>
    <symbol id="icon-bell" viewBox="0 0 32 32">
      <path stroke-linecap="round" stroke-linejoin="round" stroke-width="3" d="M12.472 28c.94.83 2.175 1.333 3.528 1.333s2.588-.504 3.528-1.333M24 10.667a8 8 0 1 0-16 0c0 4.12-1.039 6.941-2.2 8.807-.979 1.574-1.469 2.361-1.451 2.58.02.243.071.336.267.481.177.131.974.131 2.569.131h17.63c1.595 0 2.392 0 2.569-.131.196-.145.247-.238.267-.481.018-.22-.472-1.006-1.451-2.58-1.161-1.866-2.2-4.687-2.2-8.807z"/>
    </symbol>
    <symbol id="icon-filter" viewBox="0 0 32 32">
      <path stroke-linecap="round" stroke-linejoin="round" stroke-width="3" d="M29.334 4H2.667l10.667 12.613v8.72L18.667 28V16.613L29.334 4z"/>
    </symbol>
    <symbol id="icon-icon-1-square" fill="none" viewBox="0 0 32 32">
      <path stroke-width="2.667" d="M4.396 6.978a3.465 3.465 0 0 1 2.582-2.582 7.408 7.408 0 0 1 3.377 0 3.465 3.465 0 0 1 2.582 2.582c.26 1.11.26 2.266 0 3.377a3.465 3.465 0 0 1-2.582 2.582c-1.11.26-2.266.26-3.377 0a3.465 3.465 0 0 1-2.582-2.582 7.408 7.408 0 0 1 0-3.377zM4.396 21.645a3.465 3.465 0 0 1 2.582-2.582 7.38 7.38 0 0 1 3.377 0 3.464 3.464 0 0 1 2.582 2.582 7.408 7.408 0 0 1 0 3.377 3.465 3.465 0 0 1-2.582 2.582 7.38 7.38 0 0 1-3.377 0 3.464 3.464 0 0 1-2.582-2.582 7.408 7.408 0 0 1 0-3.377zM19.063 6.978a3.464 3.464 0 0 1 2.582-2.582 7.408 7.408 0 0 1 3.377 0 3.465 3.465 0 0 1 2.582 2.582 7.38 7.38 0 0 1 0 3.377 3.464 3.464 0 0 1-2.582 2.582 7.408 7.408 0 0 1-3.377 0 3.465 3.465 0 0 1-2.582-2.582 7.38 7.38 0 0 1 0-3.377zM19.063 21.645a3.464 3.464 0 0 1 2.582-2.582 7.38 7.38 0 0 1 3.377 0 3.464 3.464 0 0 1 2.582 2.582 7.38 7.38 0 0 1 0 3.377 3.464 3.464 0 0 1-2.582 2.582 7.38 7.38 0 0 1-3.377 0 3.464 3.464 0 0 1-2.582-2.582 7.38 7.38 0 0 1 0-3.377z"/>
    </symbol>
    <symbol id="icon-icon-2-star" viewBox="0 0 32 32">
      <path stroke-linecap="round" stroke-linejoin="round" stroke-width="2.667" d="m16 2.667 2.683 6.975c.376.978.564 1.466.856 1.878.259.364.577.683.942.942.411.292.9.48 1.878.856l6.975 2.683-6.975 2.683c-.978.376-1.466.564-1.878.856a3.993 3.993 0 0 0-.942.942c-.292.411-.48.9-.856 1.878L16 29.335l-2.683-6.975c-.376-.978-.564-1.466-.856-1.878a4.012 4.012 0 0 0-.942-.942c-.411-.292-.9-.48-1.878-.856l-6.975-2.683 6.975-2.683c.978-.376 1.466-.564 1.878-.856.364-.259.683-.578.942-.942.292-.411.48-.9.856-1.878L16 2.667z"/>
    </symbol>
    <symbol id="icon-icon-3-circle" viewBox="0 0 32 32">
      <path stroke-linecap="round" stroke-linejoin="round" stroke-width="2.667" d="M4.454 22.666a6.364 6.364 0 0 1 1.944-8.453l.003-.003a6.37 6.37 0 0 1 7.312.126l4.576 3.327a6.37 6.37 0 0 0 7.312.126l.003-.003a6.36 6.36 0 0 0 1.943-8.453m-4.878 18.213a6.365 6.365 0 0 1-8.453-1.944l-.003-.003a6.37 6.37 0 0 1 .126-7.312l3.327-4.576a6.37 6.37 0 0 0 .126-7.312l-.006-.003a6.363 6.363 0 0 0-8.453-1.942m16.094 2.118c5.207 5.207 5.207 13.648 0 18.855s-13.648 5.207-18.855 0c-5.207-5.207-5.207-13.648 0-18.855s13.648-5.207 18.855 0z"/>
    </symbol>
    <symbol id="icon-icon-4-pazzle" viewBox="0 0 32 32">
      <path stroke-linecap="round" stroke-linejoin="round" stroke-width="2.667" d="m16 2.667 4.8 4.8C24-.933 32.933 8 24.533 11.2l4.8 4.8-4.8 4.8c-3.2-8.4-12.133.533-3.733 3.733l-4.8 4.8-4.8-4.8C8 32.933-.933 24 7.467 20.8l-4.8-4.8 4.8-4.8c3.2 8.4 12.133-.533 3.733-3.733l4.8-4.8z"/>
    </symbol>
    <symbol id="icon-icon-5-cube" viewBox="0 0 32 32">
      <path stroke-linecap="round" stroke-linejoin="round" stroke-width="2.667" d="M27.333 9.704 16 16m0 0L4.667 9.704M16 16v12.667m12-7.256V10.588c0-.457 0-.685-.067-.889a1.343 1.343 0 0 0-.285-.485c-.145-.158-.345-.269-.744-.491l-9.867-5.481c-.378-.21-.567-.315-.767-.356a1.349 1.349 0 0 0-.537 0c-.2.041-.389.146-.767.356L5.099 8.723c-.399.222-.599.333-.744.491a1.34 1.34 0 0 0-.286.485c-.067.204-.067.432-.067.889v10.823c0 .457 0 .685.067.889.06.18.157.346.286.485.145.158.345.269.744.491l9.867 5.482c.378.21.567.315.767.356.177.036.36.036.537 0 .2-.041.389-.146.767-.356l9.867-5.482c.399-.222.599-.333.744-.491.129-.14.226-.305.285-.485.067-.204.067-.432.067-.889z"/>
    </symbol>
    <symbol id="icon-icon-6-lightning" viewBox="0 0 32 32">
      <path stroke-linecap="round" stroke-linejoin="round" stroke-width="2.667" d="M18.999 2.667h-7.674c-.239 0-.359 0-.465.036a.672.672 0 0 0-.249.154c-.08.078-.133.185-.24.399l-5.6 11.2c-.256.511-.383.767-.353.974a.669.669 0 0 0 .277.449c.172.12.458.12 1.029.12h8.274l-4 13.333 16.258-16.86c.548-.569.823-.853.839-1.097a.665.665 0 0 0-.235-.553c-.186-.157-.581-.157-1.372-.157h-9.49l3-8z"/>
    </symbol>
    <symbol id="icon-icon-7-colors" viewBox="0 0 32 32">
      <path stroke-linecap="round" stroke-linejoin="round" stroke-width="2.667" d="M16 27.296a8 8 0 1 0 7.44-13.683m-14.88.001a8 8 0 1 0 9.546 4.773M24 10.667a8 8 0 1 1-16 0 8 8 0 0 1 16 0z"/>
    </symbol>
    <symbol id="icon-icon-8-hexagon" viewBox="0 0 32 32">
      <path stroke-linecap="round" stroke-linejoin="round" stroke-width="2.667" d="M14.964 3.242c.378-.21.567-.315.767-.356.177-.036.36-.036.537 0 .2.041.389.146.767.356l9.867 5.482c.399.222.599.333.744.491.129.14.226.305.285.485.067.204.067.432.067.889v10.823c0 .457 0 .685-.067.889-.06.18-.157.346-.285.485-.145.158-.345.269-.744.491l-9.867 5.482c-.378.21-.567.315-.767.356-.177.036-.36.036-.537 0-.2-.041-.389-.146-.767-.356l-9.867-5.482c-.399-.222-.599-.333-.744-.491a1.34 1.34 0 0 1-.286-.485C4 22.097 4 21.869 4 21.412V10.589c0-.457 0-.685.067-.889.06-.18.157-.346.286-.485.145-.158.345-.269.744-.491l9.867-5.481z"/>
    </symbol>
    <symbol id="icon-logo" viewBox="0 0 32 32">
      <path d="M10.663 30.054c.489-2.543.905-5.22 1.494-7.897.29-1.401-.063-1.999-1.63-1.892s-3.313.053-4.979 0c-1.666-.054-1.965-.892-1.005-2.088C9.269 12.341 14.049 6.577 18.811.83c.534-.651 1.15-1.115 2.028-.625s.697 1.098.552 1.829c-.525 2.677-.96 5.354-1.539 7.978-.299 1.356.091 1.838 1.503 1.785a42.527 42.527 0 0 1 4.255 0c.806 0 1.865-.419 2.281.678s-.462 1.562-.905 2.213a611.485 611.485 0 0 1-5.504 6.684 2916.089 2916.089 0 0 0-8.102 9.709c-.525.633-1.114 1.142-2.01.821s-.706-1.08-.706-1.847z"/>
    </symbol>
    <symbol id="icon-logout" viewBox="0 0 32 32">
      <path stroke-linecap="round" stroke-linejoin="round" stroke-width="1.5" d="M11.867 10.08c.413-4.8 2.88-6.76 8.28-6.76h.173c5.96 0 8.347 2.387 8.347 8.347v8.693c0 5.96-2.387 8.347-8.347 8.347h-.173c-5.36 0-7.827-1.933-8.267-6.653M2.667 16H19.84"/>
      <path stroke-linecap="round" stroke-linejoin="round" stroke-width="1.5" d="M16.867 11.533 21.334 16l-4.467 4.467"/>
    </symbol>
    <symbol id="icon-pencil" viewBox="0 0 32 32">
      <path stroke-linecap="round" stroke-linejoin="round" stroke-width="2.6" d="m3.333 28.667 7.399-2.846c.473-.182.71-.273.931-.392.197-.106.384-.227.56-.364.199-.154.378-.333.736-.692l15.04-15.04A3.77 3.77 0 1 0 22.666 4L7.626 19.04c-.359.359-.538.538-.692.736a3.948 3.948 0 0 0-.364.56c-.119.221-.21.458-.392.931l-2.846 7.399zm0 0 2.744-7.135c.196-.511.295-.766.463-.883a.665.665 0 0 1 .505-.107c.201.038.395.232.782.619l3.012 3.012c.387.387.58.58.619.782a.665.665 0 0 1-.107.505c-.117.168-.372.267-.883.463l-7.135 2.744z"/>
    </symbol>
    <symbol id="icon-plus" viewBox="0 0 32 32">
      <path stroke-linecap="round" stroke-linejoin="round" stroke-width="2.88" d="M16 6.667v18.667M6.666 16h18.667"/>
    </symbol>
    <symbol id="icon-trash" viewBox="0 0 32 32">
      <path stroke-linecap="round" stroke-linejoin="round" stroke-width="2.6" d="M12 4h8M4 8h24M6.667 8l.801 12.018c.149 2.231.223 3.347.588 4.243a6 6 0 0 0 3.672 3.435c.919.304 2.037.304 4.273.304 2.236 0 3.354 0 4.273-.304a6 6 0 0 0 3.672-3.435c.365-.896.439-2.012.588-4.243L25.335 8"/>
    </symbol>
    <symbol id="icon-gitbrowse" viewBox="0 0 32 32">
      <path stroke-linecap="round" stroke-linejoin="round" stroke-width="2.667" d="M6.333 25.667 25.666 6.334m.001-.001h-18m18 0v18"/>
    </symbol>
    <symbol id="icon-help-circle" viewBox="0 0 32 32">
      <path stroke-linecap="round" stroke-linejoin="round" stroke-width="2.88" d="M16 29.333c7.364 0 13.333-5.97 13.333-13.333S23.363 2.667 16 2.667C8.636 2.667 2.667 8.637 2.667 16S8.637 29.333 16 29.333z"/>
      <path stroke-linecap="round" stroke-linejoin="round" stroke-width="2.88" d="M12.12 12a4.003 4.003 0 0 1 6.834-1.249c.608.722.941 1.637.94 2.582 0 2.667-4 4-4 4M16 22.667h.02"/>
    </symbol>
     <symbol id="icon-menu-01" viewBox="0 0 32 32">
      <path stroke-linejoin="round" stroke-linecap="round" stroke-width="2.5" d="M4 16h24M4 8h24M4 24h24"/>
    </symbol>
    <symbol id="icon-chevron-down" viewBox="0 0 30 32">
      <path stroke-linejoin="round" stroke-linecap="round" stroke-miterlimit="4" stroke-width="2.8235" d="M7.529 12.235l7.529 7.529 7.529-7.529"></path>
    </symbol>
    <symbol id="icon-user" viewBox="0 0 32 32">
<path fill="#f6f6f7" style="fill: var(--color1, #f6f6f7)" d="M3.765 0h24.471c2.079 0 3.765 1.686 3.765 3.765v24.471c0 2.079-1.686 3.765-3.765 3.765h-24.471c-2.079 0-3.765-1.686-3.765-3.765v-24.471c0-2.079 1.686-3.765 3.765-3.765z"></path>
<path fill="#fff" style="fill: var(--color2, #fff)" d="M21.49 14.745c0 2.946-2.388 5.333-5.333 5.333s-5.333-2.388-5.333-5.333c0-2.946 2.388-5.333 5.333-5.333s5.333 2.388 5.333 5.333z"></path>
<path fill="#fff" style="fill: var(--color2, #fff)" d="M29.060 32.853c0-1.723-0.339-3.429-0.999-5.020s-1.626-3.038-2.844-4.256c-1.218-1.218-2.664-2.184-4.256-2.844s-3.297-0.999-5.020-0.999c-1.723 0-3.429 0.339-5.020 0.999s-3.038 1.626-4.256 2.844c-1.218 1.218-2.184 2.664-2.844 4.256s-0.999 3.297-0.999 5.020h26.237z"></path>
</symbol>
<symbol id="icon-1-square" viewBox="0 0 18 18" fill="none">
      <path d="M2.473 3.925C2.642 3.205 3.205 2.642 3.925 2.473c0.625-0.147 1.275-0.147 1.9 0 0.721 0.169 1.284 0.732 1.453 1.452 0.146 0.625 0.146 1.275 0 1.9-0.169 0.721-0.732 1.284-1.453 1.453-0.625 0.147-1.275 0.147-1.9 0-0.721-0.169-1.284-0.732-1.452-1.453-0.147-0.625-0.147-1.275 0-1.9z"   stroke-width="1.5"/>
      <path d="M2.473 12.175c0.169-0.721 0.732-1.284 1.452-1.453 0.625-0.146 1.275-0.146 1.9 0 0.721 0.169 1.284 0.732 1.453 1.452 0.146 0.625 0.146 1.275 0 1.9-0.169 0.721-0.732 1.284-1.453 1.453-0.625 0.147-1.275 0.147-1.9 0-0.721-0.169-1.284-0.732-1.452-1.453-0.147-0.625-0.147-1.275 0-1.9z"   stroke-width="1.5"/>
      <path d="M10.723 3.925c0.17-0.721 0.733-1.284 1.453-1.453 0.625-0.146 1.275-0.146 1.9 0 0.721 0.169 1.284 0.732 1.453 1.452 0.146 0.625 0.146 1.275 0 1.9-0.169 0.721-0.732 1.284-1.453 1.453-0.625 0.147-1.275 0.147-1.9 0-0.72-0.169-1.284-0.732-1.453-1.453-0.147-0.625-0.147-1.275 0-1.9z"   stroke-width="1.5"/>
      <path d="M10.723 12.175c0.17-0.721 0.733-1.284 1.453-1.453 0.625-0.146 1.275-0.146 1.9 0 0.721 0.169 1.284 0.732 1.453 1.452 0.146 0.625 0.146 1.275 0 1.9-0.169 0.721-0.732 1.284-1.453 1.453-0.625 0.147-1.275 0.147-1.9 0-0.72-0.169-1.284-0.732-1.453-1.453-0.147-0.625-0.147-1.275 0-1.9z"   stroke-width="1.5"/>
    </symbol>
    <symbol fill="none" viewBox="0 0 18 18" id="icon-7-colors">
      <path d="M8.99999 15.3542C9.79613 16.0667 10.8475 16.5 12 16.5C14.4853 16.5 16.5 14.4853 16.5 12C16.5 9.92481 15.0953 8.17769 13.1849 7.65763M4.81513 7.65762C2.9047 8.17768 1.5 9.9248 1.5 12C1.5 14.4853 3.51472 16.5 6 16.5C8.48528 16.5 10.5 14.4853 10.5 12C10.5 11.4146 10.3882 10.8554 10.1849 10.3424M13.5 6C13.5 8.48528 11.4853 10.5 9 10.5C6.51472 10.5 4.5 8.48528 4.5 6C4.5 3.51472 6.51472 1.5 9 1.5C11.4853 1.5 13.5 3.51472 13.5 6Z"  stroke-width="1.5" stroke-linecap="round" stroke-linejoin="round"></path>
    </symbol>
    <symbol fill="none" viewBox="0 0 18 18" id="icon-5-cube">
      <path d="M15.375 5.45831L8.99998 8.99998M8.99998 8.99998L2.62498 5.45831M8.99998 8.99998L9 16.125M15.75 12.0439V5.95609C15.75 5.6991 15.75 5.57061 15.7121 5.45601C15.6786 5.35463 15.6239 5.26157 15.5515 5.18305C15.4697 5.0943 15.3574 5.0319 15.1328 4.9071L9.58277 1.82376C9.37007 1.7056 9.26372 1.64651 9.15109 1.62335C9.05141 1.60285 8.9486 1.60285 8.84891 1.62335C8.73628 1.64651 8.62993 1.7056 8.41723 1.82376L2.86723 4.9071C2.64259 5.0319 2.53026 5.0943 2.44847 5.18305C2.37612 5.26157 2.32136 5.35463 2.28786 5.45602C2.25 5.57061 2.25 5.69911 2.25 5.95609V12.0439C2.25 12.3009 2.25 12.4294 2.28786 12.544C2.32136 12.6454 2.37612 12.7384 2.44847 12.817C2.53026 12.9057 2.64259 12.9681 2.86723 13.0929L8.41723 16.1762C8.62993 16.2944 8.73628 16.3535 8.84891 16.3767C8.9486 16.3972 9.05141 16.3972 9.15109 16.3767C9.26372 16.3535 9.37007 16.2944 9.58277 16.1762L15.1328 13.0929C15.3574 12.9681 15.4697 12.9057 15.5515 12.817C15.6239 12.7384 15.6786 12.6454 15.7121 12.544C15.75 12.4294 15.75 12.3009 15.75 12.0439Z" stroke-width="1.5" stroke-linecap="round" stroke-linejoin="round"></path>
    </symbol>
    <symbol fill="none"  viewBox="0 0 18 18" id="icon-8-hexagon">
      <path d="M8.41723 1.82376C8.62993 1.7056 8.73628 1.64651 8.84891 1.62335C8.94859 1.60285 9.05141 1.60285 9.15109 1.62335C9.26372 1.64651 9.37007 1.7056 9.58277 1.82376L15.1328 4.9071C15.3574 5.0319 15.4697 5.0943 15.5515 5.18305C15.6239 5.26157 15.6786 5.35463 15.7121 5.45601C15.75 5.57061 15.75 5.6991 15.75 5.95609V12.0439C15.75 12.3009 15.75 12.4294 15.7121 12.544C15.6786 12.6454 15.6239 12.7384 15.5515 12.817C15.4697 12.9057 15.3574 12.9681 15.1328 13.0929L9.58277 16.1762C9.37007 16.2944 9.26372 16.3535 9.15109 16.3767C9.05141 16.3972 8.94859 16.3972 8.84891 16.3767C8.73628 16.3535 8.62993 16.2944 8.41723 16.1762L2.86723 13.0929C2.64259 12.9681 2.53026 12.9057 2.44847 12.817C2.37612 12.7384 2.32136 12.6454 2.28786 12.544C2.25 12.4294 2.25 12.3009 2.25 12.0439V5.95609C2.25 5.6991 2.25 5.57061 2.28786 5.45601C2.32136 5.35463 2.37612 5.26157 2.44847 5.18305C2.53026 5.0943 2.64259 5.0319 2.86723 4.9071L8.41723 1.82376Z" stroke-width="1.5" stroke-linecap="round" stroke-linejoin="round"></path>
    </symbol>
    <symbol fill="none" viewBox="0 0 18 18" id="icon-6-lightning">
      <path d="M10.6871 1.5H6.37047C6.23586 1.5 6.16855 1.5 6.10913 1.5205C6.05658 1.53862 6.00872 1.5682 5.96901 1.60709C5.92411 1.65107 5.89401 1.71127 5.83381 1.83167L2.68381 8.13167C2.54005 8.41919 2.46817 8.56295 2.48543 8.67981C2.50051 8.78185 2.55695 8.87318 2.64148 8.9323C2.73828 9 2.89901 9 3.22046 9H7.87465L5.62464 16.5L14.7695 7.01648C15.078 6.69653 15.2323 6.53655 15.2413 6.39966C15.2491 6.28084 15.2 6.16536 15.1091 6.08852C15.0043 6 14.782 6 14.3376 6H8.99965L10.6871 1.5Z" stroke-width="1.5" stroke-linecap="round" stroke-linejoin="round"></path>
    </symbol>
    <symbol fill="none" viewBox="0 0 18 18" id="icon-3-circle">
      <path d="M2.50519 12.7498C1.56607 11.1224 2.04355 9.04833 3.59847 7.99505L3.60013 7.99338C4.84923 7.14926 6.49331 7.17759 7.71325 8.06421L10.2873 9.93578C11.5064 10.8224 13.1505 10.8507 14.4004 10.0066L14.4021 10.0049C15.9578 8.95166 16.4361 6.87594 15.4953 5.25019M12.7515 15.4945C11.1241 16.4336 9.04999 15.9561 7.99671 14.4012L7.99505 14.3995C7.15093 13.1504 7.17926 11.5063 8.06588 10.2864L9.93744 7.71238C10.8241 6.49327 10.8524 4.84919 10.0083 3.59926L10.0049 3.59759C8.95166 2.04351 6.87594 1.56437 5.25019 2.50515M14.3029 3.69676C17.2319 6.62577 17.2319 11.3739 14.3029 14.3029C11.3739 17.2319 6.62577 17.2319 3.69676 14.3029C0.767747 11.3739 0.767747 6.62577 3.69676 3.69676C6.62577 0.767747 11.3739 0.767747 14.3029 3.69676Z" stroke-width="1.5" stroke-linecap="round" stroke-linejoin="round"></path>
    </symbol>
    <symbol fill="none" viewBox="0 0 18 18" id="icon-4-puzzle">
      <path  d="M9 1.5L11.7 4.2C13.5 -0.525 18.525 4.5 13.8 6.3L16.5 9L13.8 11.7C12 6.975 6.975 12 11.7 13.8L9 16.5L6.3 13.8C4.5 18.525 -0.525 13.5 4.2 11.7L1.5 9L4.2 6.3C6 11.025 11.025 6 6.3 4.2L9 1.5Z"  stroke-width="1.5" stroke-linecap="round" stroke-linejoin="round"></path>
    </symbol>
    <symbol fill="none" viewBox="0 0 18 18" id="icon-2-star">
      <path d="M9 1.5L10.509 5.42331C10.7205 5.97324 10.8262 6.2482 10.9907 6.47948C11.1364 6.68446 11.3155 6.86356 11.5205 7.00931C11.7518 7.17377 12.0268 7.27952 12.5767 7.49103L16.5 9L12.5767 10.509C12.0268 10.7205 11.7518 10.8262 11.5205 10.9907C11.3155 11.1364 11.1364 11.3155 10.9907 11.5205C10.8262 11.7518 10.7205 12.0268 10.509 12.5767L9 16.5L7.49103 12.5767C7.27952 12.0268 7.17377 11.7518 7.00931 11.5205C6.86356 11.3155 6.68446 11.1364 6.47948 10.9907C6.2482 10.8262 5.97324 10.7205 5.42331 10.509L1.5 9L5.42331 7.49103C5.97323 7.27952 6.2482 7.17377 6.47948 7.00931C6.68446 6.86356 6.86356 6.68446 7.00931 6.47948C7.17377 6.2482 7.27952 5.97324 7.49103 5.42331L9 1.5Z" stroke-width="1.5" stroke-linecap="round" stroke-linejoin="round"></path>
    </symbol>
    <symbol id="icon-close" width="18" height="18" viewBox="0 0 18 18" fill="none">
       <path d="M13.5 4.5L4.5 13.5" stroke="#161616" stroke-width="1.5" stroke-linecap="round" stroke-linejoin="round"/>
       <path d="M4.5 4.5L13.5 13.5" stroke="#161616" stroke-width="1.5" stroke-linecap="round" stroke-linejoin="round"/>
    </symbol>
    <symbol id="icon-no-bg" width="16" height="16" viewBox="0 0 16 16" fill="none">
  <path d="M12.6664 14H13.34C13.9875 14 14.3112 14 14.4896 13.865C14.6451 13.7474 14.7413 13.5677 14.7529 13.3731C14.7662 13.1497 14.5867 12.8804 14.2275 12.3417L12.2206 9.33128C11.9239 8.88616 11.7755 8.66359 11.5885 8.58604C11.425 8.51823 11.2412 8.51823 11.0777 8.58604C10.8907 8.66359 10.7423 8.88616 10.4456 9.33128L9.94945 10.0755M12.6664 14L7.54344 6.60012C7.24881 6.17455 7.1015 5.96176 6.91748 5.88696C6.75651 5.82152 6.57635 5.82152 6.41538 5.88696C6.23137 5.96176 6.08405 6.17455 5.78943 6.60012L1.82523 12.3262C1.44988 12.8684 1.26221 13.1394 1.27289 13.3649C1.2822 13.5612 1.37768 13.7435 1.53382 13.8629C1.7131 14 2.04281 14 2.70224 14H12.6664ZM13.9998 4C13.9998 5.10457 13.1043 6 11.9998 6C10.8952 6 9.99976 5.10457 9.99976 4C9.99976 2.89543 10.8952 2 11.9998 2C13.1043 2 13.9998 2.89543 13.9998 4Z" stroke-linecap="round" stroke-linejoin="round"/>
</svg>
  </defs>
</svg>
